<svg version="1.1" id="Layer_1" xmlns="http://www.w3.org/2000/svg" xmlns:xlink="http://www.w3.org/1999/xlink" x="0px" y="0px"
	 width="100%" viewBox="0 0 512 512" enable-background="new 0 0 512 512" xml:space="preserve">
<path fill="#FFFFFF" opacity="1.000000" stroke="none" 
	d="
M200.000000,1.000000 
	C304.275146,1.000000 408.550293,1.000000 513.000000,1.000000 
	C513.000000,154.689270 513.000000,308.378601 512.638794,462.426270 
	C510.076050,454.687042 504.612976,448.949768 498.825043,443.214386 
	C471.252136,415.891907 443.908508,388.338226 416.385193,360.965485 
	C411.528046,356.134888 406.123932,352.132874 398.680542,351.928802 
	C393.004578,351.773163 387.825775,350.037109 384.423553,344.944855 
	C383.616333,343.736633 382.837067,342.485962 381.870972,341.411224 
	C369.555878,327.711639 357.186890,314.060516 344.881744,300.352112 
	C340.285156,295.231354 335.709045,290.082092 331.396942,284.725800 
	C330.649139,283.796906 330.732330,281.497284 331.340546,280.287811 
	C336.951385,269.130707 343.420135,258.358673 348.365295,246.923706 
	C356.391541,228.364151 360.167755,208.646164 360.891632,188.467514 
	C361.204590,179.744049 360.935303,170.902390 359.847137,162.250671 
	C358.501190,151.549835 356.997345,140.687561 353.792542,130.448792 
	C349.988953,118.296921 344.969879,106.401749 339.281952,94.991325 
	C329.830902,76.031845 316.675018,59.833256 300.566284,45.882908 
	C285.274414,32.639965 268.858887,21.272863 249.932999,14.158929 
	C238.729645,9.947771 226.965408,7.191600 215.380539,4.049783 
	C210.348114,2.684993 205.132446,1.995959 200.000000,1.000000 
M471.000000,166.500000 
	C471.000000,139.172012 471.127319,111.843124 470.936371,84.516472 
	C470.861633,73.817940 465.794495,64.815788 458.646942,57.418861 
	C449.454468,47.905670 437.240540,45.110493 424.449066,45.045090 
	C396.121979,44.900246 367.793610,45.000000 339.465759,45.000000 
	C337.704468,45.000000 335.943176,45.000000 334.303833,45.000000 
	C334.303833,51.344639 334.303833,57.084557 334.303833,63.000000 
	C363.250793,63.000000 391.894440,62.963741 420.537750,63.044144 
	C424.277985,63.054642 428.027832,63.569698 431.753784,64.014214 
	C444.511414,65.536247 453.055542,75.721382 453.043976,88.571899 
	C452.961456,180.220734 453.000000,271.869690 453.000000,363.518585 
	C453.000000,365.281372 453.000000,367.044159 453.000000,368.701660 
	C459.334045,368.701660 465.072113,368.701660 471.000000,368.701660 
	C471.000000,301.435699 471.000000,234.467850 471.000000,166.500000 
M360.057983,88.730576 
	C360.057983,94.353592 360.057983,99.976616 360.057983,105.796005 
	C385.789062,105.796005 411.193024,105.796005 436.798523,105.796005 
	C436.798523,99.871719 436.798523,94.133568 436.798523,88.056129 
	C411.318756,88.056129 386.033752,88.056129 360.057983,88.730576 
M429.439453,148.000000 
	C431.876831,148.000000 434.314240,148.000000 436.730042,148.000000 
	C436.730042,141.724014 436.730042,135.985977 436.730042,130.269745 
	C416.722839,130.269745 396.986816,130.269745 377.272827,130.269745 
	C377.272827,136.281738 377.272827,142.019791 377.272827,148.000000 
	C394.515015,148.000000 411.485474,148.000000 429.439453,148.000000 
M407.500000,173.000000 
	C397.403839,173.000000 387.307678,173.000000 377.287811,173.000000 
	C377.287811,179.312576 377.287811,185.050659 377.287811,190.714722 
	C397.311646,190.714722 417.046387,190.714722 436.712250,190.714722 
	C436.712250,184.687561 436.712250,178.949463 436.712250,173.000000 
	C427.117371,173.000000 417.808685,173.000000 407.500000,173.000000 
M437.000000,229.352585 
	C437.000000,224.598846 437.000000,219.845123 437.000000,215.342102 
	C416.579224,215.342102 396.840515,215.342102 377.345947,215.342102 
	C377.345947,221.432068 377.345947,227.176468 377.345947,232.999908 
	C396.350067,232.999908 415.008423,232.987579 433.666718,233.018341 
	C435.607483,233.021545 437.488617,233.206787 437.000000,229.352585 
M437.000000,266.508118 
	C437.000000,263.738525 437.000000,260.968933 437.000000,258.285492 
	C416.691345,258.285492 396.954956,258.285492 377.288727,258.285492 
	C377.288727,264.313385 377.288727,270.051971 377.288727,275.711182 
	C397.315186,275.711182 417.051605,275.711182 437.000000,275.711182 
	C437.000000,272.779358 437.000000,270.134460 437.000000,266.508118 
M436.942017,317.269409 
	C436.942017,311.646484 436.942017,306.023590 436.942017,300.204163 
	C419.544556,300.204163 402.473846,300.204163 385.201508,300.204163 
	C385.201508,306.128143 385.201508,311.866211 385.201508,317.943878 
	C402.347015,317.943878 419.299133,317.943878 436.942017,317.269409 
z"/>
<path fill="#FFFFFF" opacity="1.000000" stroke="none" 
	d="
M466.000000,513.000000 
	C311.083771,513.000000 156.167542,513.000000 1.000000,513.000000 
	C1.000000,402.976807 1.000000,292.953400 1.408614,182.631989 
	C2.878120,193.559265 3.464920,204.854721 5.112533,215.993240 
	C7.502415,232.149780 13.234349,247.441147 20.597164,261.867706 
	C29.815699,279.930328 41.703823,296.163116 56.571396,310.290771 
	C71.665749,324.633911 88.449776,336.116180 107.315384,344.780823 
	C131.096954,355.703247 156.273788,360.150726 182.181274,360.869843 
	C189.152283,361.063324 196.265900,360.188538 203.140884,358.888428 
	C215.774719,356.499207 228.560898,354.313568 240.771011,350.431122 
	C257.822937,345.009155 273.371307,336.054077 287.724030,325.411499 
	C291.537201,322.584045 293.038483,323.153198 295.638275,326.087921 
	C307.077209,339.000366 318.645233,351.798401 330.136902,364.664307 
	C335.052155,370.167328 339.940155,375.696075 344.755920,381.286041 
	C348.225067,385.312897 351.464478,389.000946 351.284454,395.313629 
	C351.087250,402.227325 353.817047,408.582611 359.237122,413.920410 
	C385.698029,439.979401 411.922852,466.279816 438.070221,492.654449 
	C446.323029,500.978912 454.411743,509.339935 466.000000,513.000000 
M108.500000,471.000000 
	C200.896515,471.000000 293.293030,471.000000 385.757751,471.000000 
	C385.757751,464.778320 385.757751,459.041260 385.757751,453.000000 
	C383.720367,453.000000 381.921295,453.000000 380.122223,453.000000 
	C282.503296,453.000000 184.884338,452.991882 87.265404,453.018188 
	C80.734726,453.019928 75.421028,450.416260 70.645561,446.183167 
	C64.644180,440.863403 63.142784,433.722504 63.082630,426.361603 
	C62.870285,400.376038 63.000000,374.387695 63.000000,348.400391 
	C63.000000,346.645721 63.000000,344.891083 63.000000,343.324585 
	C56.608944,343.324585 50.867996,343.324585 45.000000,343.324585 
	C45.000000,371.123535 44.885460,398.598938 45.070900,426.072296 
	C45.125412,434.148956 46.472305,441.996429 50.636436,449.310303 
	C58.514462,463.147247 70.152985,470.478790 86.011635,470.962952 
	C93.168129,471.181427 100.336838,471.000000 108.500000,471.000000 
M144.500000,429.000000 
	C210.924667,429.000000 277.349335,429.000000 343.713440,429.000000 
	C343.713440,422.691895 343.713440,416.952942 343.713440,411.282623 
	C255.360001,411.282623 167.293427,411.282623 79.286537,411.282623 
	C79.286537,417.308075 79.286537,423.047028 79.286537,429.000000 
	C100.881554,429.000000 122.190773,429.000000 144.500000,429.000000 
M97.500549,377.000000 
	C91.402405,377.000000 85.304260,377.000000 79.291832,377.000000 
	C79.291832,383.318848 79.291832,389.057983 79.291832,394.712036 
	C156.317337,394.712036 233.050690,394.712036 309.708130,394.712036 
	C309.708130,388.679932 309.708130,382.941559 309.708130,377.000000 
	C239.111145,377.000000 168.805786,377.000000 97.500549,377.000000 
z"/>
<path fill="#000000" opacity="1.000000" stroke="none" 
	d="
M466.467957,513.000000 
	C454.411743,509.339935 446.323029,500.978912 438.070221,492.654449 
	C411.922852,466.279816 385.698029,439.979401 359.237122,413.920410 
	C353.817047,408.582611 351.087250,402.227325 351.284454,395.313629 
	C351.464478,389.000946 348.225067,385.312897 344.755920,381.286041 
	C339.940155,375.696075 335.052155,370.167328 330.136902,364.664307 
	C318.645233,351.798401 307.077209,339.000366 295.638275,326.087921 
	C293.038483,323.153198 291.537201,322.584045 287.724030,325.411499 
	C273.371307,336.054077 257.822937,345.009155 240.771011,350.431122 
	C228.560898,354.313568 215.774719,356.499207 203.140884,358.888428 
	C196.265900,360.188538 189.152283,361.063324 182.181274,360.869843 
	C156.273788,360.150726 131.096954,355.703247 107.315384,344.780823 
	C88.449776,336.116180 71.665749,324.633911 56.571396,310.290771 
	C41.703823,296.163116 29.815699,279.930328 20.597164,261.867706 
	C13.234349,247.441147 7.502415,232.149780 5.112533,215.993240 
	C3.464920,204.854721 2.878120,193.559265 1.408614,182.166977 
	C1.000000,179.958328 1.000000,177.916672 1.407937,175.271454 
	C2.210482,168.933075 2.147795,163.121185 3.098623,157.480103 
	C4.864824,147.001572 6.253257,136.305145 9.541398,126.270401 
	C15.808477,107.144531 24.639454,89.139709 36.969128,72.999603 
	C47.781063,58.846287 60.105358,46.344940 74.496750,35.755692 
	C85.979683,27.306503 98.015350,19.911156 111.385727,15.077242 
	C122.955185,10.894430 134.811203,7.463779 146.650711,4.086826 
	C151.961868,2.571939 157.541946,1.999891 163.000000,1.000000 
	C175.020889,1.000000 187.041794,1.000000 199.531342,1.000000 
	C205.132446,1.995959 210.348114,2.684993 215.380539,4.049783 
	C226.965408,7.191600 238.729645,9.947771 249.932999,14.158929 
	C268.858887,21.272863 285.274414,32.639965 300.566284,45.882908 
	C316.675018,59.833256 329.830902,76.031845 339.281952,94.991325 
	C344.969879,106.401749 349.988953,118.296921 353.792542,130.448792 
	C356.997345,140.687561 358.501190,151.549835 359.847137,162.250671 
	C360.935303,170.902390 361.204590,179.744049 360.891632,188.467514 
	C360.167755,208.646164 356.391541,228.364151 348.365295,246.923706 
	C343.420135,258.358673 336.951385,269.130707 331.340546,280.287811 
	C330.732330,281.497284 330.649139,283.796906 331.396942,284.725800 
	C335.709045,290.082092 340.285156,295.231354 344.881744,300.352112 
	C357.186890,314.060516 369.555878,327.711639 381.870972,341.411224 
	C382.837067,342.485962 383.616333,343.736633 384.423553,344.944855 
	C387.825775,350.037109 393.004578,351.773163 398.680542,351.928802 
	C406.123932,352.132874 411.528046,356.134888 416.385193,360.965485 
	C443.908508,388.338226 471.252136,415.891907 498.825043,443.214386 
	C504.612976,448.949768 510.076050,454.687042 512.638794,462.892303 
	C513.000000,470.020966 513.000000,477.041901 512.633423,484.645142 
	C509.372070,490.459717 506.986816,496.069733 503.457611,500.831940 
	C498.688690,507.266968 491.136871,509.963043 484.000000,513.000000 
	C478.311951,513.000000 472.623932,513.000000 466.467957,513.000000 
M204.714386,22.957432 
	C200.217178,22.304956 195.703766,21.012987 191.225983,21.126532 
	C180.221008,21.405586 169.222916,22.204723 158.239624,23.028893 
	C143.942566,24.101723 130.430252,28.561092 117.510315,34.309040 
	C92.082626,45.621555 70.786819,62.335918 53.779926,84.599556 
	C34.747917,109.514275 24.064440,137.677933 21.225843,168.591064 
	C19.711706,185.080444 21.023266,201.670700 24.898632,218.029648 
	C31.403078,245.486649 44.110237,269.610229 63.007774,290.339264 
	C77.817581,306.584412 95.392426,319.132904 115.546898,328.377258 
	C135.780472,337.657928 156.952728,341.993835 178.905838,342.838257 
	C187.364090,343.163605 195.917511,341.892609 204.383316,340.951172 
	C219.523666,339.267517 234.018326,334.888885 247.776932,328.544647 
	C267.349121,319.519745 284.641754,307.239838 299.388306,291.287659 
	C308.722412,281.190430 316.803040,270.296082 323.216431,258.241699 
	C337.162903,232.028549 343.819336,204.207153 342.186523,174.282181 
	C341.355682,159.055191 338.799683,144.363861 333.947937,130.027878 
	C324.188904,101.191902 307.332703,77.084900 284.022949,57.681221 
	C270.614960,46.520039 255.765411,37.291332 239.114532,31.758198 
	C228.185425,28.126423 216.799454,25.869474 204.714386,22.957432 
M449.500000,479.000000 
	C452.799255,482.296448 456.020996,485.675201 459.414856,488.871185 
	C465.397156,494.504730 472.153015,497.534241 480.587708,495.009247 
	C495.760773,490.467010 500.353394,473.763367 492.540131,464.214661 
	C486.691345,457.066681 480.004913,450.581940 473.473694,444.018585 
	C449.740631,420.168976 425.919861,396.406647 402.122498,372.621094 
	C397.379120,367.880035 390.773895,367.727722 386.286499,372.212616 
	C381.810394,376.686279 377.343170,381.168793 372.869476,385.644867 
	C367.444458,391.072968 367.498657,396.975830 373.041138,402.520416 
	C398.359375,427.848328 423.680145,453.173706 449.500000,479.000000 
M353.030792,338.356781 
	C352.738373,337.793518 352.546143,337.141693 352.138397,336.680389 
	C346.705719,330.534637 341.287811,324.374786 335.775391,318.300873 
	C329.865997,311.789581 323.860626,305.365417 318.197327,299.228577 
	C314.140533,303.345856 310.212402,307.332520 306.149506,311.455963 
	C324.019653,331.505707 342.132294,351.827515 360.139343,372.030853 
	C364.608276,368.052765 368.785583,364.334290 373.126434,360.470245 
	C366.511261,353.240875 359.973297,346.095825 353.030792,338.356781 
z"/>
<path fill="#FFFFFF" opacity="1.000000" stroke="none" 
	d="
M162.531342,1.000000 
	C157.541946,1.999891 151.961868,2.571939 146.650711,4.086826 
	C134.811203,7.463779 122.955185,10.894430 111.385727,15.077242 
	C98.015350,19.911156 85.979683,27.306503 74.496750,35.755692 
	C60.105358,46.344940 47.781063,58.846287 36.969128,72.999603 
	C24.639454,89.139709 15.808477,107.144531 9.541398,126.270401 
	C6.253257,136.305145 4.864824,147.001572 3.098623,157.480103 
	C2.147795,163.121185 2.210482,168.933075 1.407937,174.833954 
	C1.000000,117.075592 1.000000,59.151184 1.000000,1.000000 
	C54.687347,1.000000 108.375015,1.000000 162.531342,1.000000 
z"/>
<path fill="#FFFFFF" opacity="1.000000" stroke="none" 
	d="
M484.468658,513.000000 
	C491.136871,509.963043 498.688690,507.266968 503.457611,500.831940 
	C506.986816,496.069733 509.372070,490.459717 512.633423,485.113708 
	C513.000000,494.261078 513.000000,503.522186 513.000000,513.000000 
	C503.646881,513.000000 494.292114,513.000000 484.468658,513.000000 
z"/>
<path fill="#000000" opacity="1.000000" stroke="none" 
	d="
M471.000000,167.000000 
	C471.000000,234.467850 471.000000,301.435699 471.000000,368.701660 
	C465.072113,368.701660 459.334045,368.701660 453.000000,368.701660 
	C453.000000,367.044159 453.000000,365.281372 453.000000,363.518585 
	C453.000000,271.869690 452.961456,180.220734 453.043976,88.571899 
	C453.055542,75.721382 444.511414,65.536247 431.753784,64.014214 
	C428.027832,63.569698 424.277985,63.054642 420.537750,63.044144 
	C391.894440,62.963741 363.250793,63.000000 334.303833,63.000000 
	C334.303833,57.084557 334.303833,51.344639 334.303833,45.000000 
	C335.943176,45.000000 337.704468,45.000000 339.465759,45.000000 
	C367.793610,45.000000 396.121979,44.900246 424.449066,45.045090 
	C437.240540,45.110493 449.454468,47.905670 458.646942,57.418861 
	C465.794495,64.815788 470.861633,73.817940 470.936371,84.516472 
	C471.127319,111.843124 471.000000,139.172012 471.000000,167.000000 
z"/>
<path fill="#000000" opacity="1.000000" stroke="none" 
	d="
M360.403381,88.393356 
	C386.033752,88.056129 411.318756,88.056129 436.798523,88.056129 
	C436.798523,94.133568 436.798523,99.871719 436.798523,105.796005 
	C411.193024,105.796005 385.789062,105.796005 360.057983,105.796005 
	C360.057983,99.976616 360.057983,94.353592 360.403381,88.393356 
z"/>
<path fill="#000000" opacity="1.000000" stroke="none" 
	d="
M428.947693,148.000000 
	C411.485474,148.000000 394.515015,148.000000 377.272827,148.000000 
	C377.272827,142.019791 377.272827,136.281738 377.272827,130.269745 
	C396.986816,130.269745 416.722839,130.269745 436.730042,130.269745 
	C436.730042,135.985977 436.730042,141.724014 436.730042,148.000000 
	C434.314240,148.000000 431.876831,148.000000 428.947693,148.000000 
z"/>
<path fill="#000000" opacity="1.000000" stroke="none" 
	d="
M408.000000,173.000000 
	C417.808685,173.000000 427.117371,173.000000 436.712250,173.000000 
	C436.712250,178.949463 436.712250,184.687561 436.712250,190.714722 
	C417.046387,190.714722 397.311646,190.714722 377.287811,190.714722 
	C377.287811,185.050659 377.287811,179.312576 377.287811,173.000000 
	C387.307678,173.000000 397.403839,173.000000 408.000000,173.000000 
z"/>
<path fill="#000000" opacity="1.000000" stroke="none" 
	d="
M436.999878,229.837616 
	C437.488617,233.206787 435.607483,233.021545 433.666718,233.018341 
	C415.008423,232.987579 396.350067,232.999908 377.345947,232.999908 
	C377.345947,227.176468 377.345947,221.432068 377.345947,215.342102 
	C396.840515,215.342102 416.579224,215.342102 437.000000,215.342102 
	C437.000000,219.845123 437.000000,224.598846 436.999878,229.837616 
z"/>
<path fill="#000000" opacity="1.000000" stroke="none" 
	d="
M437.000000,266.998840 
	C437.000000,270.134460 437.000000,272.779358 437.000000,275.711182 
	C417.051605,275.711182 397.315186,275.711182 377.288727,275.711182 
	C377.288727,270.051971 377.288727,264.313385 377.288727,258.285492 
	C396.954956,258.285492 416.691345,258.285492 437.000000,258.285492 
	C437.000000,260.968933 437.000000,263.738525 437.000000,266.998840 
z"/>
<path fill="#000000" opacity="1.000000" stroke="none" 
	d="
M436.596619,317.606628 
	C419.299133,317.943878 402.347015,317.943878 385.201508,317.943878 
	C385.201508,311.866211 385.201508,306.128143 385.201508,300.204163 
	C402.473846,300.204163 419.544556,300.204163 436.942017,300.204163 
	C436.942017,306.023590 436.942017,311.646484 436.596619,317.606628 
z"/>
<path fill="#000000" opacity="1.000000" stroke="none" 
	d="
M108.000000,471.000000 
	C100.336838,471.000000 93.168129,471.181427 86.011635,470.962952 
	C70.152985,470.478790 58.514462,463.147247 50.636436,449.310303 
	C46.472305,441.996429 45.125412,434.148956 45.070900,426.072296 
	C44.885460,398.598938 45.000000,371.123535 45.000000,343.324585 
	C50.867996,343.324585 56.608944,343.324585 63.000000,343.324585 
	C63.000000,344.891083 63.000000,346.645721 63.000000,348.400391 
	C63.000000,374.387695 62.870285,400.376038 63.082630,426.361603 
	C63.142784,433.722504 64.644180,440.863403 70.645561,446.183167 
	C75.421028,450.416260 80.734726,453.019928 87.265404,453.018188 
	C184.884338,452.991882 282.503296,453.000000 380.122223,453.000000 
	C381.921295,453.000000 383.720367,453.000000 385.757751,453.000000 
	C385.757751,459.041260 385.757751,464.778320 385.757751,471.000000 
	C293.293030,471.000000 200.896515,471.000000 108.000000,471.000000 
z"/>
<path fill="#000000" opacity="1.000000" stroke="none" 
	d="
M144.000000,429.000000 
	C122.190773,429.000000 100.881554,429.000000 79.286537,429.000000 
	C79.286537,423.047028 79.286537,417.308075 79.286537,411.282623 
	C167.293427,411.282623 255.360001,411.282623 343.713440,411.282623 
	C343.713440,416.952942 343.713440,422.691895 343.713440,429.000000 
	C277.349335,429.000000 210.924667,429.000000 144.000000,429.000000 
z"/>
<path fill="#000000" opacity="1.000000" stroke="none" 
	d="
M98.000488,377.000000 
	C168.805786,377.000000 239.111145,377.000000 309.708130,377.000000 
	C309.708130,382.941559 309.708130,388.679932 309.708130,394.712036 
	C233.050690,394.712036 156.317337,394.712036 79.291832,394.712036 
	C79.291832,389.057983 79.291832,383.318848 79.291832,377.000000 
	C85.304260,377.000000 91.402405,377.000000 98.000488,377.000000 
z"/>
<path fill="#FFFFFF" opacity="1.000000" stroke="none" 
	d="
M205.166229,22.977127 
	C216.799454,25.869474 228.185425,28.126423 239.114532,31.758198 
	C255.765411,37.291332 270.614960,46.520039 284.022949,57.681221 
	C307.332703,77.084900 324.188904,101.191902 333.947937,130.027878 
	C338.799683,144.363861 341.355682,159.055191 342.186523,174.282181 
	C343.819336,204.207153 337.162903,232.028549 323.216431,258.241699 
	C316.803040,270.296082 308.722412,281.190430 299.388306,291.287659 
	C284.641754,307.239838 267.349121,319.519745 247.776932,328.544647 
	C234.018326,334.888885 219.523666,339.267517 204.383316,340.951172 
	C195.917511,341.892609 187.364090,343.163605 178.905838,342.838257 
	C156.952728,341.993835 135.780472,337.657928 115.546898,328.377258 
	C95.392426,319.132904 77.817581,306.584412 63.007774,290.339264 
	C44.110237,269.610229 31.403078,245.486649 24.898632,218.029648 
	C21.023266,201.670700 19.711706,185.080444 21.225843,168.591064 
	C24.064440,137.677933 34.747917,109.514275 53.779926,84.599556 
	C70.786819,62.335918 92.082626,45.621555 117.510315,34.309040 
	C130.430252,28.561092 143.942566,24.101723 158.239624,23.028893 
	C169.222916,22.204723 180.221008,21.405586 191.225983,21.126532 
	C195.703766,21.012987 200.217178,22.304956 205.166229,22.977127 
M105.657051,58.031216 
	C103.737389,59.219646 101.725098,60.282215 99.912567,61.616199 
	C83.716644,73.536049 69.625870,87.426346 58.848053,104.585823 
	C46.536289,124.187531 39.311909,145.617157 37.244766,168.447922 
	C35.900356,183.296310 36.598011,198.337189 39.944492,213.124146 
	C45.813358,239.056625 57.843174,261.735046 75.797760,281.160004 
	C87.450752,293.767334 101.156799,303.775085 116.698555,311.374634 
	C140.677429,323.099701 165.668823,328.292267 192.420670,326.178497 
	C206.116257,325.096344 219.289124,322.486511 232.145584,317.949188 
	C248.434998,312.200256 263.143555,303.458313 276.091095,292.207703 
	C292.998749,277.515991 306.486664,260.033844 314.981995,239.062180 
	C321.329224,223.393295 326.053833,207.342209 326.003326,190.219360 
	C325.983154,183.387772 326.297516,176.539230 325.911957,169.729416 
	C325.563080,163.567917 324.950836,157.340897 323.608337,151.331863 
	C320.199585,136.073883 314.651978,121.616920 306.636230,108.090408 
	C295.933807,90.030106 282.147766,74.860847 264.850555,63.036983 
	C246.434982,50.448620 226.396286,42.058647 204.058609,38.765190 
	C189.719742,36.651073 175.473801,36.150970 161.329178,38.192116 
	C141.792084,41.011425 123.195335,47.154564 105.657051,58.031216 
z"/>
<path fill="#FFFFFF" opacity="1.000000" stroke="none" 
	d="
M449.250000,478.750000 
	C423.680145,453.173706 398.359375,427.848328 373.041138,402.520416 
	C367.498657,396.975830 367.444458,391.072968 372.869476,385.644867 
	C377.343170,381.168793 381.810394,376.686279 386.286499,372.212616 
	C390.773895,367.727722 397.379120,367.880035 402.122498,372.621094 
	C425.919861,396.406647 449.740631,420.168976 473.473694,444.018585 
	C480.004913,450.581940 486.691345,457.066681 492.540131,464.214661 
	C500.353394,473.763367 495.760773,490.467010 480.587708,495.009247 
	C472.153015,497.534241 465.397156,494.504730 459.414856,488.871185 
	C456.020996,485.675201 452.799255,482.296448 449.250000,478.750000 
z"/>
<path fill="#FFFFFF" opacity="1.000000" stroke="none" 
	d="
M353.233032,338.653809 
	C359.973297,346.095825 366.511261,353.240875 373.126434,360.470245 
	C368.785583,364.334290 364.608276,368.052765 360.139343,372.030853 
	C342.132294,351.827515 324.019653,331.505707 306.149506,311.455963 
	C310.212402,307.332520 314.140533,303.345856 318.197327,299.228577 
	C323.860626,305.365417 329.865997,311.789581 335.775391,318.300873 
	C341.287811,324.374786 346.705719,330.534637 352.138397,336.680389 
	C352.546143,337.141693 352.738373,337.793518 353.233032,338.653809 
z"/>
<path fill="#000000" opacity="1.000000" stroke="none" 
	d="
M106.032806,57.997498 
	C123.195335,47.154564 141.792084,41.011425 161.329178,38.192116 
	C175.473801,36.150970 189.719742,36.651073 204.058609,38.765190 
	C226.396286,42.058647 246.434982,50.448620 264.850555,63.036983 
	C282.147766,74.860847 295.933807,90.030106 306.636230,108.090408 
	C314.651978,121.616920 320.199585,136.073883 323.608337,151.331863 
	C324.950836,157.340897 325.563080,163.567917 325.911957,169.729416 
	C326.297516,176.539230 325.983154,183.387772 326.003326,190.219360 
	C326.053833,207.342209 321.329224,223.393295 314.981995,239.062180 
	C306.486664,260.033844 292.998749,277.515991 276.091095,292.207703 
	C263.143555,303.458313 248.434998,312.200256 232.145584,317.949188 
	C219.289124,322.486511 206.116257,325.096344 192.420670,326.178497 
	C165.668823,328.292267 140.677429,323.099701 116.698555,311.374634 
	C101.156799,303.775085 87.450752,293.767334 75.797760,281.160004 
	C57.843174,261.735046 45.813358,239.056625 39.944492,213.124146 
	C36.598011,198.337189 35.900356,183.296310 37.244766,168.447922 
	C39.311909,145.617157 46.536289,124.187531 58.848053,104.585823 
	C69.625870,87.426346 83.716644,73.536049 99.912567,61.616199 
	C101.725098,60.282215 103.737389,59.219646 106.032806,57.997498 
M235.982956,296.523163 
	C242.130356,293.033752 248.628220,290.035431 254.351227,285.951324 
	C265.797119,277.783173 275.626160,267.950592 284.116333,256.573700 
	C300.923187,234.052444 308.168091,208.529922 308.820374,180.951050 
	C309.002808,173.238358 307.231842,165.438232 305.976135,157.740341 
	C301.889374,132.687500 289.890228,111.521843 272.667938,93.383537 
	C261.679901,81.811111 248.693649,72.730400 233.852844,66.290085 
	C210.268112,56.055264 186.126862,52.541664 160.573990,56.835102 
	C138.014465,60.625591 117.976089,69.768967 100.695663,84.144463 
	C80.548988,100.904366 66.560089,122.133003 59.547916,147.774094 
	C55.033062,164.283325 53.801338,180.843552 55.962090,197.781036 
	C58.193199,215.269989 63.855206,231.393921 72.816017,246.654343 
	C85.314438,267.939362 102.587090,283.929413 124.387062,294.940582 
	C145.433594,305.571228 167.674927,310.395294 191.542542,308.199890 
	C206.888626,306.788330 221.330414,303.006836 235.982956,296.523163 
z"/>
<path fill="#FFFFFF" opacity="1.000000" stroke="none" 
	d="
M235.662384,296.745728 
	C221.330414,303.006836 206.888626,306.788330 191.542542,308.199890 
	C167.674927,310.395294 145.433594,305.571228 124.387062,294.940582 
	C102.587090,283.929413 85.314438,267.939362 72.816017,246.654343 
	C63.855206,231.393921 58.193199,215.269989 55.962090,197.781036 
	C53.801338,180.843552 55.033062,164.283325 59.547916,147.774094 
	C66.560089,122.133003 80.548988,100.904366 100.695663,84.144463 
	C117.976089,69.768967 138.014465,60.625591 160.573990,56.835102 
	C186.126862,52.541664 210.268112,56.055264 233.852844,66.290085 
	C248.693649,72.730400 261.679901,81.811111 272.667938,93.383537 
	C289.890228,111.521843 301.889374,132.687500 305.976135,157.740341 
	C307.231842,165.438232 309.002808,173.238358 308.820374,180.951050 
	C308.168091,208.529922 300.923187,234.052444 284.116333,256.573700 
	C275.626160,267.950592 265.797119,277.783173 254.351227,285.951324 
	C248.628220,290.035431 242.130356,293.033752 235.662384,296.745728 
M227.624680,139.958679 
	C217.932968,136.282837 208.055084,133.222824 197.605988,133.046188 
	C185.119843,132.835114 172.454819,131.710571 160.178574,133.334717 
	C142.789780,135.635269 126.223106,141.489349 111.143265,150.956589 
	C100.154671,157.855316 89.868736,165.613113 81.311890,175.382385 
	C79.128426,177.875214 75.817413,181.059418 79.574654,185.099304 
	C94.145126,200.765930 110.522995,213.913300 130.599426,221.953629 
	C146.056076,228.143814 162.059784,232.165695 178.740204,231.849686 
	C189.986618,231.636597 201.407455,230.973602 212.379257,228.712036 
	C222.795959,226.564911 233.273392,223.144409 242.731461,218.332687 
	C253.274399,212.969040 263.075562,205.892868 272.472260,198.622086 
	C278.503876,193.955032 283.221893,187.590302 288.369995,182.154221 
	C270.913086,162.938477 251.666336,148.602966 227.624680,139.958679 
M206.500000,267.000000 
	C218.263184,267.000000 230.026367,267.000000 241.710083,267.000000 
	C241.710083,260.683197 241.710083,254.945145 241.710083,249.286530 
	C201.685699,249.286530 161.951874,249.286530 122.289871,249.286530 
	C122.289871,255.315567 122.289871,261.054291 122.289871,267.000000 
	C150.219467,267.000000 177.859726,267.000000 206.500000,267.000000 
M122.000282,111.325615 
	C121.550667,115.290329 124.556664,113.952728 126.337112,113.955498 
	C164.000717,114.014160 201.664413,114.000511 239.328094,113.994720 
	C240.112961,113.994598 240.897827,113.920395 241.768097,113.876434 
	C241.768097,107.803154 241.768097,102.064743 241.768097,96.232956 
	C201.799423,96.232956 162.063019,96.232956 122.000008,96.232956 
	C122.000008,101.089912 122.000008,105.721451 122.000282,111.325615 
z"/>
<path fill="#000000" opacity="1.000000" stroke="none" 
	d="
M228.030334,139.978882 
	C251.666336,148.602966 270.913086,162.938477 288.369995,182.154221 
	C283.221893,187.590302 278.503876,193.955032 272.472260,198.622086 
	C263.075562,205.892868 253.274399,212.969040 242.731461,218.332687 
	C233.273392,223.144409 222.795959,226.564911 212.379257,228.712036 
	C201.407455,230.973602 189.986618,231.636597 178.740204,231.849686 
	C162.059784,232.165695 146.056076,228.143814 130.599426,221.953629 
	C110.522995,213.913300 94.145126,200.765930 79.574654,185.099304 
	C75.817413,181.059418 79.128426,177.875214 81.311890,175.382385 
	C89.868736,165.613113 100.154671,157.855316 111.143265,150.956589 
	C126.223106,141.489349 142.789780,135.635269 160.178574,133.334717 
	C172.454819,131.710571 185.119843,132.835114 197.605988,133.046188 
	C208.055084,133.222824 217.932968,136.282837 228.030334,139.978882 
M201.916656,212.005737 
	C202.583130,212.003448 203.270020,212.107178 203.913055,211.983276 
	C218.271973,209.216415 231.618301,203.665848 244.074921,196.230072 
	C250.880020,192.167908 256.929138,186.839310 264.783417,180.991699 
	C253.111038,173.824234 243.201187,167.163712 232.756836,161.486557 
	C222.193710,155.744812 205.592636,150.976273 199.466995,151.599670 
	C212.192368,159.701828 216.378174,169.383514 216.813263,180.628616 
	C217.320282,193.732620 210.971405,203.927628 199.744003,211.808502 
	C199.202759,211.971375 198.661530,212.134262 198.120285,212.297134 
	C198.224106,212.589508 198.327927,212.881882 198.431747,213.174255 
	C199.312744,212.809494 200.193741,212.444733 201.916656,212.005737 
M162.187180,212.710083 
	C163.021317,212.753189 163.855453,212.796295 165.765396,212.895004 
	C164.096817,212.068619 163.432236,211.739471 162.314499,210.884079 
	C143.195999,199.142670 139.236282,166.899612 165.620651,150.732437 
	C140.074402,154.724045 118.904251,164.981110 100.412743,181.955521 
	C111.254074,192.207474 123.196327,199.806091 136.546661,204.861588 
	C144.743103,207.965408 153.449982,209.721237 162.187180,212.710083 
M192.982880,193.526093 
	C199.846603,188.147598 198.896835,176.484543 193.950439,171.285797 
	C186.916595,163.893066 176.868652,163.850357 170.849411,169.774414 
	C163.129852,177.371887 163.105835,185.565399 170.089630,193.294052 
	C175.115677,198.856201 184.442871,200.747696 192.982880,193.526093 
z"/>
<path fill="#000000" opacity="1.000000" stroke="none" 
	d="
M206.000000,267.000000 
	C177.859726,267.000000 150.219467,267.000000 122.289871,267.000000 
	C122.289871,261.054291 122.289871,255.315567 122.289871,249.286530 
	C161.951874,249.286530 201.685699,249.286530 241.710083,249.286530 
	C241.710083,254.945145 241.710083,260.683197 241.710083,267.000000 
	C230.026367,267.000000 218.263184,267.000000 206.000000,267.000000 
z"/>
<path fill="#000000" opacity="1.000000" stroke="none" 
	d="
M122.000145,110.839294 
	C122.000008,105.721451 122.000008,101.089912 122.000008,96.232956 
	C162.063019,96.232956 201.799423,96.232956 241.768097,96.232956 
	C241.768097,102.064743 241.768097,107.803154 241.768097,113.876434 
	C240.897827,113.920395 240.112961,113.994598 239.328094,113.994720 
	C201.664413,114.000511 164.000717,114.014160 126.337112,113.955498 
	C124.556664,113.952728 121.550667,115.290329 122.000145,110.839294 
z"/>
<path fill="#FFFFFF" opacity="1.000000" stroke="none" 
	d="
M161.927658,212.082382 
	C153.449982,209.721237 144.743103,207.965408 136.546661,204.861588 
	C123.196327,199.806091 111.254074,192.207474 100.412743,181.955521 
	C118.904251,164.981110 140.074402,154.724045 165.620651,150.732437 
	C139.236282,166.899612 143.195999,199.142670 162.324188,211.306610 
	C162.198471,211.846909 162.063065,211.964645 161.927658,212.082382 
z"/>
<path fill="#FFFFFF" opacity="1.000000" stroke="none" 
	d="
M200.252182,211.386337 
	C210.971405,203.927628 217.320282,193.732620 216.813263,180.628616 
	C216.378174,169.383514 212.192368,159.701828 199.466995,151.599670 
	C205.592636,150.976273 222.193710,155.744812 232.756836,161.486557 
	C243.201187,167.163712 253.111038,173.824234 264.783417,180.991699 
	C256.929138,186.839310 250.880020,192.167908 244.074921,196.230072 
	C231.618301,203.665848 218.271973,209.216415 203.913055,211.983276 
	C203.270020,212.107178 202.583130,212.003448 201.296402,211.861923 
	C200.534836,211.607529 200.393509,211.496933 200.252182,211.386337 
z"/>
<path fill="#FFFFFF" opacity="1.000000" stroke="none" 
	d="
M192.707947,193.784531 
	C184.442871,200.747696 175.115677,198.856201 170.089630,193.294052 
	C163.105835,185.565399 163.129852,177.371887 170.849411,169.774414 
	C176.868652,163.850357 186.916595,163.893066 193.950439,171.285797 
	C198.896835,176.484543 199.846603,188.147598 192.707947,193.784531 
z"/>
<path fill="#FFFFFF" opacity="1.000000" stroke="none" 
	d="
M200.875427,211.899048 
	C200.193741,212.444733 199.312744,212.809494 198.431747,213.174255 
	C198.327927,212.881882 198.224106,212.589508 198.120285,212.297134 
	C198.661530,212.134262 199.202759,211.971375 199.998093,211.597412 
	C200.393509,211.496933 200.534836,211.607529 200.875427,211.899048 
z"/>
<path fill="#FFFFFF" opacity="1.000000" stroke="none" 
	d="
M162.550781,211.569748 
	C163.432236,211.739471 164.096817,212.068619 165.765396,212.895004 
	C163.855453,212.796295 163.021317,212.753189 162.057419,212.396240 
	C162.063065,211.964645 162.198471,211.846909 162.550781,211.569748 
z"/>
</svg>